<?xml version="1.0" standalone="no"?>
<svg xmlns="http://www.w3.org/2000/svg" viewBox="0 0 1440 320">
  <path fill="#146C94" fill-opacity="0.2"
    d="M0,192L40,208C80,224,160,256,240,234.7C320,213,400,139,480,133.3C560,128,640,192,720,197.3C800,203,880,149,960,154.7C1040,160,1120,224,1200,208C1280,192,1360,96,1400,48L1440,0L1440,320L1400,320C1360,320,1280,320,1200,320C1120,320,1040,320,960,320C880,320,800,320,720,320C640,320,560,320,480,320C400,320,320,320,240,320C160,320,80,320,40,320L0,320Z"></path>
</svg>